<svg width="1em" height="1em" viewBox="0 0 20 20" fill="none" xmlns="http://www.w3.org/2000/svg">
<path d="M1.66667 8.5791C1.33333 8.5791 1 9.05279 1 9.52647H2V8.5791H1.83333H1.66667Z" stroke="#58595B"/>
<path d="M1.66667 19C1.33333 19 1 18.5263 1 18.0526L2 18.0526L2 19L1.83333 19L1.66667 19Z" stroke="#58595B"/>
<path d="M1.5 9.52637V18.0527" stroke="#58595B"/>
<path d="M2.5 9.05273H18C18.3333 9.05273 19 9.24221 19 10.0001C19 10.758 19 15.3685 19 17.5791C19 17.8948 18.8 18.5264 18 18.5264C17.2 18.5264 7.33333 18.5264 2.5 18.5264" stroke="#58595B"/>
<path d="M5 9.52637H2.5C2.22386 9.52637 2 9.75022 2 10.0264V17.5527C2 17.8288 2.22386 18.0527 2.5 18.0527H5C5.55228 18.0527 6 17.605 6 17.0527V10.5264C6 9.97408 5.55228 9.52637 5 9.52637Z" stroke="#58595B"/>
<path d="M3 9.5C2 9.5 2 10.5 2 11V17C2 17.5 2.5 18 3 18H4.5C5.3 18 5.5 17.3333 5.5 17V11C5.5 10 5 9.5 4.5 9.5H3Z" stroke="#58595B"/>
<path d="M5.5 18.5264V9.05271H7V5.26324C7 5.10534 7.1 4.78955 7.5 4.78955C7.9 4.78955 8 5.10534 8 5.26324V8.57902V9.05271H18C18.8 9.05271 19 9.68429 19 10.0001V17.579C19 18.3369 18.3333 18.5264 18 18.5264H5.5Z" fill="#58595B"/>
<path d="M7 9.05271C6.45633 9.05271 5.95033 9.05271 5.5 9.05271V18.5264H18C18.3333 18.5264 19 18.3369 19 17.579C19 16.8211 19 12.2106 19 10.0001C19 9.68429 18.8 9.05271 18 9.05271C17.3495 9.05271 12.0274 9.05271 8 9.05271M7 9.05271V5.26324C7 5.10534 7.1 4.78955 7.5 4.78955C7.9 4.78955 8 5.10534 8 5.26324V8.57902V9.05271M7 9.05271C7.32141 9.05271 7.65598 9.05271 8 9.05271" stroke="#58595B"/>
<path d="M7.5 5.73684V1" stroke="#58595B" stroke-linecap="round"/>
<path d="M8.50002 10.4736C7.00002 10.4736 7.00005 10.4736 7.00003 11.3263L7.00001 12.8421L7.00001 12.8421C7.00003 13.2968 7.00003 13.3157 8.50002 13.3157H16.5C18 13.3157 18 13.3157 18 12.7473V11.3263C18 10.4736 18 10.4736 16.5 10.4736H8.50002Z" fill="#2EB02A"/>
<path d="M7.875 14.2632C7.4375 14.2632 7 14.2632 7 15.2106V16.6316C7 17.1053 7.4375 17.1053 7.875 17.1053H13.125C13.5625 17.1053 14 17.1053 14 16.6316V15.2106C14 14.7369 14 14.2632 13.125 14.2632H7.875Z" fill="#F8CD31"/>
<ellipse cx="16.5" cy="15.6842" rx="1.5" ry="1.42105" fill="#FC0114"/>
</svg>
