<svg width="53" height="37" viewBox="0 0 53 37" fill="currentColor"
  xmlns="http://www.w3.org/2000/svg">
  <path
    id="logo"
    d="M8.568 36.984C6.552 36.984 4.86 36.12 3.492 34.428C1.944 32.592 1.152 30.396 0.72 28.056C0.432 26.688 0.324 25.32 0.324 23.952C0.324 21.72 0.684 19.488 1.296 17.292C2.232 14.088 3.636 11.1 5.616 8.4C7.452 5.88 9.648 3.756 12.384 2.208C13.608 1.524 14.904 1.056 16.308 0.875999L16.848 0.839998C18.576 0.839998 20.088 1.812 20.772 3.432C21.132 4.296 21.276 5.232 21.42 6.168V6.348C21.42 6.492 21.42 6.636 21.528 6.744C21.564 6.708 21.6 6.672 21.636 6.672C22.104 5.412 22.68 4.188 23.004 2.892C23.004 2.856 23.004 2.82 23.04 2.784C23.148 2.244 23.328 2.064 23.688 2.064C24.084 2.064 24.444 2.316 24.552 2.784C24.588 2.928 24.588 3.036 24.588 3.144C24.588 3.396 24.516 3.648 24.408 3.9L23.796 5.016C23.04 6.204 22.428 7.5 21.924 8.832C21.816 9.156 21.708 9.444 21.708 9.804V9.948C21.708 10.092 21.672 10.236 21.528 10.272L21.384 10.308C21.276 10.308 21.168 10.236 21.096 10.164C21.024 10.092 20.952 9.984 20.952 9.876C20.916 9.192 20.664 8.58 20.664 7.86L20.7 6.852C20.7 5.844 20.484 4.836 20.088 3.9C19.944 3.576 19.728 3.252 19.512 2.964C18.936 2.316 18.252 2.064 17.532 2.064C17.208 2.064 16.884 2.1 16.56 2.172C15.3 2.424 14.22 3.108 13.212 3.9C11.412 5.268 9.936 6.924 8.64 8.724C5.616 12.936 3.708 17.58 2.916 22.692C2.736 23.772 2.664 24.852 2.664 25.968C2.664 27.228 2.772 28.524 3.06 29.82C3.42 31.368 3.996 32.772 4.968 34.032C6.012 35.4 7.344 36.084 8.928 36.084C9.252 36.084 9.648 36.048 10.008 35.976C11.628 35.724 13.068 35.004 14.472 34.176C16.848 32.736 18.864 30.9 20.772 28.884C23.004 26.508 25.056 24.024 27.072 21.504C27.18 21.36 27.288 21.216 27.432 21.108C27.468 21.072 27.54 21.036 27.612 21.036L27.72 21.072L27.792 21.18C27.792 21.252 27.756 21.288 27.72 21.36L27.504 21.684C25.236 24.636 22.896 27.516 20.34 30.18C18.936 31.656 17.424 33.06 15.768 34.212C13.968 35.472 12.096 36.48 9.936 36.876C9.468 36.948 9.036 36.984 8.568 36.984ZM31.536 22.548C31.104 23.124 30.672 23.7 30.204 24.276C29.772 24.744 29.34 25.176 28.8 25.5C27.972 25.968 27.324 25.752 26.928 24.888C26.604 24.168 26.64 23.412 26.712 22.692C26.82 21.72 27.144 20.784 27.612 19.92C27.756 19.632 27.972 19.38 28.26 19.236C28.62 19.02 29.052 19.092 29.34 19.344C29.628 19.596 29.664 19.92 29.448 20.352C29.232 20.748 28.98 21.108 28.764 21.504C28.368 22.188 28.044 22.872 27.792 23.628C27.684 24.024 27.648 24.384 27.72 24.78C27.756 25.176 27.972 25.284 28.368 25.14C28.8 24.96 29.196 24.636 29.52 24.312C30.24 23.592 30.888 22.8 31.464 21.972C31.644 21.684 31.788 21.36 31.824 21C31.896 20.496 32.004 20.028 32.22 19.56C32.508 18.912 33.12 18.696 33.732 18.984C34.236 19.2 34.488 19.704 34.344 20.28C34.2 20.748 34.02 21.216 33.84 21.648C33.408 22.8 33.084 23.952 32.976 25.176C32.94 25.932 33.012 26.652 33.192 27.408C33.264 27.66 33.408 27.912 33.588 28.164C33.948 28.632 34.416 28.812 35.028 28.704C35.532 28.596 36 28.344 36.432 28.02C36.972 27.516 37.512 26.976 37.908 26.328C38.844 24.744 39.384 23.052 39.312 21.216C39.312 20.388 39.132 19.596 38.52 18.984C38.34 18.804 38.268 18.552 38.412 18.3C38.556 18.084 38.808 18.012 39.06 18.012C39.492 18.048 39.78 18.3 39.996 18.696C40.176 19.02 40.212 19.38 40.212 19.74C40.284 21.864 39.78 23.88 38.844 25.788C38.304 26.904 37.512 27.876 36.468 28.56C35.928 28.956 35.352 29.208 34.668 29.208C34.128 29.208 33.66 29.028 33.264 28.632C32.796 28.2 32.508 27.66 32.292 27.048C31.896 26.004 31.716 24.888 31.68 23.772C31.644 23.376 31.68 22.98 31.68 22.584C31.608 22.548 31.572 22.548 31.536 22.548ZM45.1184 23.088C45.5504 22.728 45.9464 22.44 46.2344 22.08C46.4504 21.828 46.7024 21.612 46.9904 21.468C47.1344 21.396 47.3144 21.324 47.4584 21.36C47.6024 21.396 47.7104 21.504 47.7464 21.648C47.7824 21.792 47.7104 21.864 47.6024 21.936C46.8104 22.404 46.1624 22.98 45.4784 23.556C44.9744 23.916 44.9384 24.24 45.2624 24.888C45.5144 25.428 45.9104 25.68 46.4504 25.536C46.9544 25.428 47.4224 25.212 47.8544 24.96C48.8984 24.24 49.8344 23.412 50.7704 22.584C51.0944 22.296 51.3824 21.972 51.7064 21.684C51.8144 21.612 51.9584 21.432 52.1024 21.612C52.2104 21.756 52.0664 21.864 51.9584 21.972C51.2024 22.728 50.4464 23.52 49.5824 24.24C49.0064 24.744 48.3944 25.248 47.6744 25.608C47.4584 25.752 47.2064 25.86 46.9544 25.932C45.9824 26.328 45.1184 26.112 44.3984 25.32C44.3264 25.212 44.2544 25.14 44.1824 25.032C44.0384 24.852 43.8944 24.816 43.7144 24.96C43.3544 25.212 42.9944 25.464 42.5984 25.716C42.3464 25.896 42.0944 26.004 41.7704 26.076C41.5904 26.112 41.4104 26.112 41.2664 26.004C41.1584 25.932 41.1224 25.86 41.1584 25.752C41.1584 25.644 41.2304 25.608 41.3024 25.608C42.0944 25.536 42.6344 25.032 43.2464 24.636C43.7144 24.312 43.7144 24.276 43.4984 23.808C43.1744 23.124 43.0304 22.404 42.8504 21.72C42.7784 21.324 42.7424 20.928 43.1384 20.676C43.5704 20.424 43.9664 20.532 44.3624 20.748C44.8664 21.108 45.0104 21.612 45.0464 22.188C45.0464 22.476 44.9744 22.728 45.1184 23.088Z"
  />
</svg>