<svg width="76" height="37" viewBox="0 0 76 37" fill="none" xmlns="http://www.w3.org/2000/svg">
<path d="M17.136 36.344C16.596 36.344 16.128 35.912 16.02 35.264L15.948 34.436C15.948 34.076 15.984 33.68 16.056 33.32C16.344 31.196 16.884 29.108 17.46 27.056C18.288 24.068 19.152 21.116 20.16 18.164C21.096 15.5 22.176 12.836 23.22 10.172C23.76 8.804 24.228 7.436 24.66 5.996C24.876 5.204 25.02 4.376 25.02 3.548L24.984 2.936C24.912 2 24.444 1.46 23.652 1.46C23.472 1.46 23.292 1.496 23.112 1.532C21.96 1.784 21.06 2.432 20.16 3.152C18 4.916 16.308 7.076 14.724 9.344C12.96 11.936 11.412 14.672 9.9 17.408C7.668 21.44 5.544 25.544 3.492 29.684C2.952 30.8 2.412 31.952 1.728 32.996C1.62 33.248 1.476 33.464 1.296 33.644C1.152 33.824 0.972 33.968 0.792 33.968L0.612 33.932C0.324 33.86 0.18 33.644 0.144 33.356C0.108 33.14 0.072 32.924 0.072 32.708V32.096C0.072 31.016 0.216 29.936 0.396 28.856C1.008 25.04 2.16 21.368 3.456 17.732C4.464 14.96 5.58 12.224 6.588 9.452C6.84 8.768 7.056 8.048 7.164 7.292C7.236 6.896 7.308 6.464 7.776 6.356L8.064 6.32C8.46 6.32 8.784 6.5 9.036 6.824C9.432 7.256 9.576 7.76 9.576 8.3L9.54 8.804C9.396 10.028 8.964 11.216 8.496 12.332L5.04 20.432C3.6 23.852 2.268 27.272 1.296 30.836L0.864 32.816C0.864 32.924 0.9 32.996 0.936 33.068C1.152 33.032 1.188 32.852 1.26 32.708C1.62 32.096 1.98 31.448 2.304 30.8C4.284 27.02 6.192 23.24 8.244 19.496C10.368 15.644 12.456 11.72 14.976 8.048C16.38 5.96 18 4.052 19.836 2.36C20.592 1.676 21.348 1.064 22.248 0.631998C22.644 0.451998 23.04 0.343998 23.472 0.307998H23.796C25.2 0.307998 26.316 1.172 26.712 2.54C26.892 3.116 26.964 3.692 26.964 4.268C26.964 4.844 26.892 5.42 26.784 5.996C26.46 7.76 25.884 9.452 25.236 11.144C24.012 14.42 22.572 17.588 21.312 20.828C19.8 24.716 18.468 28.64 17.46 32.708C17.316 33.392 17.172 34.04 17.136 34.76V34.94C17.136 35.192 17.208 35.408 17.532 35.516C17.676 35.552 17.82 35.66 17.82 35.84V35.912C17.784 36.164 17.604 36.236 17.388 36.308L17.136 36.344ZM24.9165 24.176C25.3845 23.996 25.7805 23.708 26.1765 23.456C27.6885 22.412 29.1285 21.296 30.7125 20.36C30.7845 20.324 30.8925 20.252 30.9645 20.216C31.2525 20.072 31.5405 20 31.8285 20.216C32.0805 20.432 32.1165 20.72 32.0805 21.044C32.0085 21.404 31.8285 21.692 31.6845 22.016C31.4325 22.484 31.1805 22.952 30.9645 23.42C30.8925 23.6 30.7845 23.852 30.9645 24.032C31.1445 24.248 31.3965 24.212 31.6485 24.176C32.0445 24.068 32.4045 23.924 32.7645 23.744C34.1325 23.096 35.3205 22.196 36.4725 21.224C36.7605 20.972 37.0485 20.684 37.3365 20.432C37.4445 20.36 37.5525 20.252 37.6965 20.252C37.7685 20.216 37.8765 20.252 37.9125 20.324C37.9845 20.396 37.9845 20.468 37.9125 20.54C37.8765 20.612 37.8045 20.684 37.7325 20.756C36.3285 21.908 34.9245 23.096 33.3405 24.032C32.8365 24.32 32.2965 24.572 31.7205 24.68C30.5325 24.968 29.7765 24.32 29.9205 23.096C29.9565 22.592 30.1365 22.124 30.3525 21.656C30.4245 21.512 30.5685 21.404 30.5325 21.188C30.3525 21.152 30.2085 21.296 30.0645 21.368C29.1285 21.908 28.3005 22.52 27.4725 23.168C26.8245 23.672 26.1765 24.14 25.5285 24.608C25.2765 24.824 24.9885 24.968 24.6645 25.076C24.0165 25.292 23.4765 24.968 23.4045 24.284C23.3325 23.852 23.3685 23.42 23.5485 23.06C24.3405 21.26 25.6725 20.036 27.6165 19.532C28.2285 19.388 28.8405 19.496 29.3805 19.82C29.6325 20 29.8845 20.216 29.8485 20.612C29.7405 20.612 29.6685 20.612 29.6325 20.576C29.1645 20.144 28.6965 20.288 28.2645 20.612C27.7605 20.9 27.3285 21.296 26.9325 21.656C26.2845 22.304 25.6725 23.024 25.0965 23.744C24.9885 23.852 24.8445 23.96 24.9165 24.176ZM54.4368 36.344C53.8968 36.344 53.4288 35.912 53.3208 35.264L53.2488 34.436C53.2488 34.076 53.2848 33.68 53.3568 33.32C53.6448 31.196 54.1848 29.108 54.7608 27.056C55.5888 24.068 56.4528 21.116 57.4608 18.164C58.3968 15.5 59.4768 12.836 60.5208 10.172C61.0608 8.804 61.5288 7.436 61.9608 5.996C62.1768 5.204 62.3208 4.376 62.3208 3.548L62.2848 2.936C62.2128 2 61.7448 1.46 60.9528 1.46C60.7728 1.46 60.5928 1.496 60.4128 1.532C59.2608 1.784 58.3608 2.432 57.4608 3.152C55.3008 4.916 53.6088 7.076 52.0248 9.344C50.2608 11.936 48.7128 14.672 47.2008 17.408C44.9688 21.44 42.8448 25.544 40.7928 29.684C40.2528 30.8 39.7128 31.952 39.0288 32.996C38.9208 33.248 38.7768 33.464 38.5968 33.644C38.4528 33.824 38.2728 33.968 38.0928 33.968L37.9128 33.932C37.6248 33.86 37.4808 33.644 37.4448 33.356C37.4088 33.14 37.3728 32.924 37.3728 32.708V32.096C37.3728 31.016 37.5168 29.936 37.6968 28.856C38.3088 25.04 39.4608 21.368 40.7568 17.732C41.7648 14.96 42.8808 12.224 43.8888 9.452C44.1408 8.768 44.3568 8.048 44.4648 7.292C44.5368 6.896 44.6088 6.464 45.0768 6.356L45.3648 6.32C45.7608 6.32 46.0848 6.5 46.3368 6.824C46.7328 7.256 46.8768 7.76 46.8768 8.3L46.8408 8.804C46.6968 10.028 46.2648 11.216 45.7968 12.332L42.3408 20.432C40.9008 23.852 39.5688 27.272 38.5968 30.836L38.1648 32.816C38.1648 32.924 38.2008 32.996 38.2368 33.068C38.4528 33.032 38.4888 32.852 38.5608 32.708C38.9208 32.096 39.2808 31.448 39.6048 30.8C41.5848 27.02 43.4928 23.24 45.5448 19.496C47.6688 15.644 49.7568 11.72 52.2768 8.048C53.6808 5.96 55.3008 4.052 57.1368 2.36C57.8928 1.676 58.6488 1.064 59.5488 0.631998C59.9448 0.451998 60.3408 0.343998 60.7728 0.307998H61.0968C62.5008 0.307998 63.6168 1.172 64.0128 2.54C64.1928 3.116 64.2648 3.692 64.2648 4.268C64.2648 4.844 64.1928 5.42 64.0848 5.996C63.7608 7.76 63.1848 9.452 62.5368 11.144C61.3128 14.42 59.8728 17.588 58.6128 20.828C57.1008 24.716 55.7688 28.64 54.7608 32.708C54.6168 33.392 54.4728 34.04 54.4368 34.76V34.94C54.4368 35.192 54.5088 35.408 54.8328 35.516C54.9768 35.552 55.1208 35.66 55.1208 35.84V35.912C55.0848 36.164 54.9048 36.236 54.6888 36.308L54.4368 36.344ZM62.2173 24.176C62.6853 23.996 63.0813 23.708 63.4773 23.456C64.9893 22.412 66.4293 21.296 68.0133 20.36C68.0853 20.324 68.1933 20.252 68.2653 20.216C68.5533 20.072 68.8413 20 69.1293 20.216C69.3813 20.432 69.4173 20.72 69.3813 21.044C69.3093 21.404 69.1293 21.692 68.9853 22.016C68.7333 22.484 68.4813 22.952 68.2653 23.42C68.1933 23.6 68.0853 23.852 68.2653 24.032C68.4453 24.248 68.6973 24.212 68.9493 24.176C69.3453 24.068 69.7053 23.924 70.0653 23.744C71.4333 23.096 72.6213 22.196 73.7733 21.224C74.0613 20.972 74.3493 20.684 74.6373 20.432C74.7453 20.36 74.8533 20.252 74.9973 20.252C75.0693 20.216 75.1773 20.252 75.2133 20.324C75.2853 20.396 75.2853 20.468 75.2133 20.54C75.1773 20.612 75.1053 20.684 75.0333 20.756C73.6293 21.908 72.2253 23.096 70.6413 24.032C70.1373 24.32 69.5973 24.572 69.0213 24.68C67.8333 24.968 67.0773 24.32 67.2213 23.096C67.2573 22.592 67.4373 22.124 67.6533 21.656C67.7253 21.512 67.8693 21.404 67.8333 21.188C67.6533 21.152 67.5093 21.296 67.3653 21.368C66.4293 21.908 65.6013 22.52 64.7733 23.168C64.1253 23.672 63.4773 24.14 62.8293 24.608C62.5773 24.824 62.2893 24.968 61.9653 25.076C61.3173 25.292 60.7773 24.968 60.7053 24.284C60.6333 23.852 60.6693 23.42 60.8493 23.06C61.6413 21.26 62.9733 20.036 64.9173 19.532C65.5293 19.388 66.1413 19.496 66.6813 19.82C66.9333 20 67.1853 20.216 67.1493 20.612C67.0413 20.612 66.9693 20.612 66.9333 20.576C66.4653 20.144 65.9973 20.288 65.5653 20.612C65.0613 20.9 64.6293 21.296 64.2333 21.656C63.5853 22.304 62.9733 23.024 62.3973 23.744C62.2893 23.852 62.1453 23.96 62.2173 24.176Z" fill="black"/>
</svg>
