<svg width="1em" height="1em" viewBox="0 0 95 6" fill="none" xmlns="http://www.w3.org/2000/svg">
  <path
    d="M3.27254 1.43786C2.27254 2.93786 0.272542 4.93786 1.27254 4.93786C2.27254 4.93786 8.27246 1.43786 8.77246 1.43786C9.27246 1.43786 9.77246 4.93786 13.2725 4.93786C16.7725 4.93786 21.2725 0.437857 20.2725 1.43786C19.2725 2.43786 17.2725 5.43784 18.2725 4.93786C19.2725 4.43788 20.2725 3.43788 20.7725 3.43788C21.2725 3.43788 22.7725 4.93784 24.7725 4.93786C26.7725 4.93788 32.2725 0.437837 31.2725 1.43786C30.2725 2.43788 28.7725 5.43784 30.2725 4.93786C31.7725 4.43787 36.2725 0.937842 36.7725 1.43786C37.2725 1.93787 38.7725 4.93784 41.7725 4.93786C44.7725 4.93787 49.2725 0.937842 48.7725 1.43786C48.2725 1.93787 45.2725 5.43784 46.7725 4.93786C48.2725 4.43787 48.7725 2.93788 49.2725 3.43788C49.7725 3.93787 51.2725 4.93786 53.2725 4.93786C55.2725 4.93786 61.2725 -0.562132 59.7725 1.43787C58.2725 3.43788 57.2725 4.93773 61.7725 4.93786C66.2725 4.93799 71.2725 0.437756 70.2725 1.43787C69.2725 2.43799 66.2725 5.43773 67.7725 4.93786C69.2725 4.43799 70.2725 3.43788 70.7725 3.43788C71.2725 3.43788 70.7725 4.93786 74.7725 4.93786C78.7725 4.93786 80.7725 0.937756 80.7725 1.43787C80.7725 1.93799 79.2725 4.93786 81.7725 4.93799C84.2725 4.93812 93.2725 1.43784 94.2725 1.43786"
    stroke="currentColor" stroke-linecap="round" />
</svg>