<svg width="1em" height="1em" viewBox="0 0 41 5" fill="currentColor" xmlns="http://www.w3.org/2000/svg">
  <path
    d="M2.09322 1.132C1.94922 1.252 1.82922 1.384 1.70922 1.528C1.45722 1.828 1.24122 2.164 1.01322 2.488C0.917219 2.632 0.833219 2.776 0.725219 2.908C0.569219 3.112 0.341219 3.088 0.221219 2.86C0.149219 2.74 0.113219 2.596 0.101219 2.452C0.0532188 1.804 0.305219 1.264 0.737219 0.796C0.857219 0.664 1.01322 0.58 1.20522 0.628C1.42122 0.7 1.50522 0.856 1.42122 1.06C1.38522 1.156 1.33722 1.252 1.28922 1.348C1.09722 1.684 0.905219 2.02 0.737219 2.38C0.725219 2.428 0.701219 2.476 0.701219 2.524C0.773219 2.476 0.821219 2.416 0.857219 2.344C1.26522 1.768 1.69722 1.204 2.15322 0.664C2.20122 0.616 2.23722 0.568 2.27322 0.532C2.44122 0.376 2.60922 0.34 2.78922 0.436C2.94522 0.52 3.04122 0.7 3.00522 0.904C2.99322 1.072 2.92122 1.228 2.84922 1.384C2.71722 1.624 2.58522 1.864 2.46522 2.116C2.39322 2.248 2.33322 2.392 2.30922 2.548C2.24922 2.92 2.42922 3.076 2.78922 2.944C2.93322 2.896 3.06522 2.824 3.18522 2.74C3.48522 2.548 3.76122 2.32 4.01322 2.068C4.25322 1.828 4.48122 1.6 4.70922 1.36C4.79322 1.288 4.86522 1.216 4.97322 1.168C5.03322 1.144 5.09322 1.132 5.12922 1.192C5.16522 1.264 5.10522 1.288 5.06922 1.324C4.74522 1.564 4.46922 1.876 4.16922 2.128C3.80922 2.428 3.48522 2.74 3.07722 2.968C2.94522 3.04 2.81322 3.1 2.66922 3.136C2.42922 3.184 2.23722 3.1 2.10522 2.908C1.97322 2.74 1.93722 2.536 1.92522 2.32C1.90122 1.984 1.96122 1.66 2.05722 1.348C2.08122 1.288 2.12922 1.228 2.09322 1.132ZM4.81722 2.392C4.97322 2.332 5.10522 2.236 5.23722 2.152C5.74122 1.804 6.22122 1.432 6.74922 1.12C6.77322 1.108 6.80922 1.084 6.83322 1.072C6.92922 1.024 7.02522 1 7.12122 1.072C7.20522 1.144 7.21722 1.24 7.20522 1.348C7.18122 1.468 7.12122 1.564 7.07322 1.672C6.98922 1.828 6.90522 1.984 6.83322 2.14C6.80922 2.2 6.77322 2.284 6.83322 2.344C6.89322 2.416 6.97722 2.404 7.06122 2.392C7.19322 2.356 7.31322 2.308 7.43322 2.248C7.88922 2.032 8.28522 1.732 8.66922 1.408C8.76522 1.324 8.86122 1.228 8.95722 1.144C8.99322 1.12 9.02922 1.084 9.07722 1.084C9.10122 1.072 9.13722 1.084 9.14922 1.108C9.17322 1.132 9.17322 1.156 9.14922 1.18C9.13722 1.204 9.11322 1.228 9.08922 1.252C8.62122 1.636 8.15322 2.032 7.62522 2.344C7.45722 2.44 7.27722 2.524 7.08522 2.56C6.68922 2.656 6.43722 2.44 6.48522 2.032C6.49722 1.864 6.55722 1.708 6.62922 1.552C6.65322 1.504 6.70122 1.468 6.68922 1.396C6.62922 1.384 6.58122 1.432 6.53322 1.456C6.22122 1.636 5.94522 1.84 5.66922 2.056C5.45322 2.224 5.23722 2.38 5.02122 2.536C4.93722 2.608 4.84122 2.656 4.73322 2.692C4.51722 2.764 4.33722 2.656 4.31322 2.428C4.28922 2.284 4.30122 2.14 4.36122 2.02C4.62522 1.42 5.06922 1.012 5.71722 0.844C5.92122 0.796 6.12522 0.832 6.30522 0.94C6.38922 1 6.47322 1.072 6.46122 1.204C6.42522 1.204 6.40122 1.204 6.38922 1.192C6.23322 1.048 6.07722 1.096 5.93322 1.204C5.76522 1.3 5.62122 1.432 5.48922 1.552C5.27322 1.768 5.06922 2.008 4.87722 2.248C4.84122 2.284 4.79322 2.32 4.81722 2.392ZM10.5893 1.132C10.4453 1.252 10.3253 1.384 10.2053 1.528C9.95331 1.828 9.73731 2.164 9.50931 2.488C9.41331 2.632 9.32931 2.776 9.22131 2.908C9.06531 3.112 8.83731 3.088 8.71731 2.86C8.64531 2.74 8.60931 2.596 8.59731 2.452C8.54931 1.804 8.80131 1.264 9.23331 0.796C9.35331 0.664 9.50931 0.58 9.70131 0.628C9.91731 0.7 10.0013 0.856 9.91731 1.06C9.88131 1.156 9.83331 1.252 9.78531 1.348C9.59331 1.684 9.40131 2.02 9.23331 2.38C9.22131 2.428 9.19731 2.476 9.19731 2.524C9.26931 2.476 9.31731 2.416 9.35331 2.344C9.76131 1.768 10.1933 1.204 10.6493 0.664C10.6973 0.616 10.7333 0.568 10.7693 0.532C10.9373 0.376 11.1053 0.34 11.2853 0.436C11.4413 0.52 11.5373 0.7 11.5013 0.904C11.4893 1.072 11.4173 1.228 11.3453 1.384C11.2133 1.624 11.0813 1.864 10.9613 2.116C10.8893 2.248 10.8293 2.392 10.8053 2.548C10.7453 2.92 10.9253 3.076 11.2853 2.944C11.4293 2.896 11.5613 2.824 11.6813 2.74C11.9813 2.548 12.2573 2.32 12.5093 2.068C12.7493 1.828 12.9773 1.6 13.2053 1.36C13.2893 1.288 13.3613 1.216 13.4693 1.168C13.5293 1.144 13.5893 1.132 13.6253 1.192C13.6613 1.264 13.6013 1.288 13.5653 1.324C13.2413 1.564 12.9653 1.876 12.6653 2.128C12.3053 2.428 11.9813 2.74 11.5733 2.968C11.4413 3.04 11.3093 3.1 11.1653 3.136C10.9253 3.184 10.7333 3.1 10.6013 2.908C10.4693 2.74 10.4333 2.536 10.4213 2.32C10.3973 1.984 10.4573 1.66 10.5533 1.348C10.5773 1.288 10.6253 1.228 10.5893 1.132ZM13.3133 2.392C13.4693 2.332 13.6013 2.236 13.7333 2.152C14.2373 1.804 14.7173 1.432 15.2453 1.12C15.2693 1.108 15.3053 1.084 15.3293 1.072C15.4253 1.024 15.5213 1 15.6173 1.072C15.7013 1.144 15.7133 1.24 15.7013 1.348C15.6773 1.468 15.6173 1.564 15.5693 1.672C15.4853 1.828 15.4013 1.984 15.3293 2.14C15.3053 2.2 15.2693 2.284 15.3293 2.344C15.3893 2.416 15.4733 2.404 15.5573 2.392C15.6893 2.356 15.8093 2.308 15.9293 2.248C16.3853 2.032 16.7813 1.732 17.1653 1.408C17.2613 1.324 17.3573 1.228 17.4533 1.144C17.4893 1.12 17.5253 1.084 17.5733 1.084C17.5973 1.072 17.6333 1.084 17.6453 1.108C17.6693 1.132 17.6693 1.156 17.6453 1.18C17.6333 1.204 17.6093 1.228 17.5853 1.252C17.1173 1.636 16.6493 2.032 16.1213 2.344C15.9533 2.44 15.7733 2.524 15.5813 2.56C15.1853 2.656 14.9333 2.44 14.9813 2.032C14.9933 1.864 15.0533 1.708 15.1253 1.552C15.1493 1.504 15.1973 1.468 15.1853 1.396C15.1253 1.384 15.0773 1.432 15.0293 1.456C14.7173 1.636 14.4413 1.84 14.1653 2.056C13.9493 2.224 13.7333 2.38 13.5173 2.536C13.4333 2.608 13.3373 2.656 13.2293 2.692C13.0133 2.764 12.8333 2.656 12.8093 2.428C12.7853 2.284 12.7973 2.14 12.8573 2.02C13.1213 1.42 13.5653 1.012 14.2133 0.844C14.4173 0.796 14.6213 0.832 14.8013 0.94C14.8853 1 14.9693 1.072 14.9573 1.204C14.9213 1.204 14.8973 1.204 14.8853 1.192C14.7293 1.048 14.5733 1.096 14.4293 1.204C14.2613 1.3 14.1173 1.432 13.9853 1.552C13.7693 1.768 13.5653 2.008 13.3733 2.248C13.3373 2.284 13.2893 2.32 13.3133 2.392ZM17.1654 2.152C17.1894 1.744 17.3334 1.384 17.5494 1.048C17.6094 0.952 17.6934 0.904 17.8014 0.904C17.9094 0.904 17.9934 0.94 18.0414 1.036C18.0894 1.12 18.0654 1.204 18.0174 1.276C17.8734 1.48 17.7294 1.672 17.6094 1.888C17.5374 2.008 17.4894 2.14 17.4414 2.272C17.4294 2.332 17.4174 2.392 17.4294 2.452C17.4534 2.56 17.5134 2.62 17.6334 2.62C17.7534 2.608 17.8494 2.56 17.9454 2.5C18.3054 2.272 18.6414 1.996 18.9414 1.708C19.0974 1.564 19.2414 1.408 19.3854 1.264C19.4214 1.228 19.4694 1.192 19.5054 1.156C19.5414 1.132 19.5774 1.108 19.6134 1.144C19.6494 1.18 19.6134 1.216 19.5894 1.24C19.1094 1.78 18.5934 2.272 17.9694 2.644C17.8854 2.692 17.7894 2.74 17.6814 2.764C17.4774 2.8 17.3454 2.74 17.2494 2.56C17.1774 2.44 17.1534 2.296 17.1654 2.152ZM18.6054 0.16C18.6054 0.208 18.5814 0.244 18.5334 0.256C18.4134 0.292 18.3414 0.388 18.2574 0.472C18.2214 0.508 18.1974 0.532 18.1614 0.556C18.1014 0.604 18.0414 0.616 17.9814 0.568C17.9094 0.52 17.8854 0.448 17.8974 0.376C17.9094 0.352 17.9094 0.328 17.9214 0.316C18.0534 0.148 18.2094 0.0519997 18.4134 0.0279996C18.5094 0.00399995 18.6054 0.0879999 18.6054 0.16ZM21.9399 1.216C21.9399 1.3 21.8799 1.336 21.8199 1.372C21.5439 1.612 21.2439 1.792 20.9319 1.972C20.7039 2.104 20.4639 2.224 20.2359 2.344C20.0799 2.428 20.0799 2.44 20.1039 2.608C20.1279 2.848 20.1639 3.088 20.1879 3.34C20.2119 3.592 20.1759 3.844 20.1279 4.096C20.1039 4.168 20.0799 4.228 20.0439 4.288C19.9119 4.504 19.7319 4.564 19.5159 4.432C19.0959 4.18 18.7359 3.88 18.4719 3.46C18.4359 3.412 18.4119 3.34 18.3879 3.28C18.3279 3.088 18.3879 2.944 18.5559 2.848C18.6879 2.776 18.8439 2.728 18.9879 2.68C19.1319 2.632 19.2759 2.584 19.4319 2.524C19.5759 2.464 19.5879 2.464 19.5519 2.308C19.5279 2.14 19.4919 1.972 19.4679 1.804C19.4439 1.588 19.4439 1.36 19.5039 1.144C19.6479 0.652 20.1399 0.364 20.5959 0.508C20.9439 0.616 21.0639 0.94 20.8839 1.252C20.7999 1.384 20.6799 1.492 20.5359 1.588C20.4639 1.636 20.3679 1.672 20.3079 1.744C20.2719 1.768 20.2359 1.78 20.1999 1.792C20.1159 1.792 20.0559 1.756 20.0439 1.684C20.0199 1.6 20.0679 1.552 20.1399 1.54C20.3439 1.516 20.4999 1.408 20.6439 1.288C20.7399 1.204 20.7999 1.096 20.7999 0.952C20.7999 0.808 20.7159 0.712 20.5719 0.688C20.3679 0.664 20.1999 0.748 20.0799 0.916C19.9479 1.096 19.9239 1.3 19.9359 1.516C19.9479 1.72 19.9839 1.912 20.0079 2.116C20.0319 2.26 20.0559 2.272 20.1999 2.212C20.7759 1.936 21.3399 1.648 21.8319 1.24C21.8559 1.216 21.8799 1.18 21.9399 1.216ZM19.8279 3.904C19.8159 3.52 19.7199 3.136 19.6479 2.752C19.6359 2.68 19.5999 2.644 19.5159 2.668C19.2519 2.764 18.9759 2.86 18.6999 2.968C18.5439 3.028 18.4959 3.136 18.5559 3.316C18.5679 3.364 18.5919 3.424 18.6279 3.472C18.8319 3.784 19.0839 4.036 19.3839 4.252C19.4439 4.288 19.4919 4.312 19.5519 4.336C19.7079 4.384 19.8039 4.336 19.8159 4.168C19.8279 4.084 19.8279 4 19.8279 3.904ZM22.0402 2.476C22.0402 2.5 22.0402 2.572 22.0522 2.632C22.1002 2.872 22.2442 3.004 22.4842 3.016C22.7122 3.028 22.9042 2.956 23.1082 2.872C23.5282 2.668 23.9002 2.392 24.2722 2.104C24.5842 1.84 24.9082 1.588 25.1842 1.276C25.1962 1.264 25.2202 1.252 25.2322 1.24C25.2442 1.228 25.2682 1.228 25.2922 1.228C25.3162 1.252 25.3162 1.276 25.3042 1.3C25.2682 1.372 25.2202 1.444 25.1602 1.492C25.0042 1.636 24.8602 1.78 24.7042 1.924C24.3082 2.26 23.9122 2.596 23.4682 2.884C23.2042 3.052 22.9282 3.196 22.6042 3.244C22.2322 3.304 21.9562 3.172 21.7402 2.884C21.4762 2.512 21.4642 2.104 21.5962 1.684C21.7882 1.144 22.1362 0.724 22.6402 0.436C22.8082 0.34 22.9882 0.292 23.1802 0.268C23.6002 0.22 23.9122 0.592 23.7802 0.988C23.7802 1.024 23.7682 1.06 23.7442 1.084C23.7202 1.132 23.6722 1.144 23.6242 1.132C23.5762 1.108 23.5402 1.072 23.5522 1.012C23.5642 0.94 23.6002 0.856 23.6122 0.784C23.6242 0.604 23.5282 0.52 23.3482 0.52C23.2642 0.532 23.1802 0.568 23.1082 0.616C22.9762 0.688 22.8562 0.796 22.7482 0.916C22.4362 1.252 22.2202 1.636 22.0882 2.08C22.0522 2.188 22.0402 2.308 22.0402 2.476ZM24.9969 2.392C25.1529 2.332 25.2849 2.236 25.4169 2.152C25.9209 1.804 26.4009 1.432 26.9289 1.12C26.9529 1.108 26.9889 1.084 27.0129 1.072C27.1089 1.024 27.2049 1 27.3009 1.072C27.3849 1.144 27.3969 1.24 27.3849 1.348C27.3609 1.468 27.3009 1.564 27.2529 1.672C27.1689 1.828 27.0849 1.984 27.0129 2.14C26.9889 2.2 26.9529 2.284 27.0129 2.344C27.0729 2.416 27.1569 2.404 27.2409 2.392C27.3729 2.356 27.4929 2.308 27.6129 2.248C28.0689 2.032 28.4649 1.732 28.8489 1.408C28.9449 1.324 29.0409 1.228 29.1369 1.144C29.1729 1.12 29.2089 1.084 29.2569 1.084C29.2809 1.072 29.3169 1.084 29.3289 1.108C29.3529 1.132 29.3529 1.156 29.3289 1.18C29.3169 1.204 29.2929 1.228 29.2689 1.252C28.8009 1.636 28.3329 2.032 27.8049 2.344C27.6369 2.44 27.4569 2.524 27.2649 2.56C26.8689 2.656 26.6169 2.44 26.6649 2.032C26.6769 1.864 26.7369 1.708 26.8089 1.552C26.8329 1.504 26.8809 1.468 26.8689 1.396C26.8089 1.384 26.7609 1.432 26.7129 1.456C26.4009 1.636 26.1249 1.84 25.8489 2.056C25.6329 2.224 25.4169 2.38 25.2009 2.536C25.1169 2.608 25.0209 2.656 24.9129 2.692C24.6969 2.764 24.5169 2.656 24.4929 2.428C24.4689 2.284 24.4809 2.14 24.5409 2.02C24.8049 1.42 25.2489 1.012 25.8969 0.844C26.1009 0.796 26.3049 0.832 26.4849 0.94C26.5689 1 26.6529 1.072 26.6409 1.204C26.6049 1.204 26.5809 1.204 26.5689 1.192C26.4129 1.048 26.2569 1.096 26.1129 1.204C25.9449 1.3 25.8009 1.432 25.6689 1.552C25.4529 1.768 25.2489 2.008 25.0569 2.248C25.0209 2.284 24.9729 2.32 24.9969 2.392ZM28.849 2.152C28.873 1.744 29.017 1.384 29.233 1.048C29.293 0.952 29.377 0.904 29.485 0.904C29.593 0.904 29.677 0.94 29.725 1.036C29.773 1.12 29.749 1.204 29.701 1.276C29.557 1.48 29.413 1.672 29.293 1.888C29.221 2.008 29.173 2.14 29.125 2.272C29.113 2.332 29.101 2.392 29.113 2.452C29.137 2.56 29.197 2.62 29.317 2.62C29.437 2.608 29.533 2.56 29.629 2.5C29.989 2.272 30.325 1.996 30.625 1.708C30.781 1.564 30.925 1.408 31.069 1.264C31.105 1.228 31.153 1.192 31.189 1.156C31.225 1.132 31.261 1.108 31.297 1.144C31.333 1.18 31.297 1.216 31.273 1.24C30.793 1.78 30.277 2.272 29.653 2.644C29.569 2.692 29.473 2.74 29.365 2.764C29.161 2.8 29.029 2.74 28.933 2.56C28.861 2.44 28.837 2.296 28.849 2.152ZM30.289 0.16C30.289 0.208 30.265 0.244 30.217 0.256C30.097 0.292 30.025 0.388 29.941 0.472C29.905 0.508 29.881 0.532 29.845 0.556C29.785 0.604 29.725 0.616 29.665 0.568C29.593 0.52 29.569 0.448 29.581 0.376C29.593 0.352 29.593 0.328 29.605 0.316C29.737 0.148 29.893 0.0519997 30.097 0.0279996C30.193 0.00399995 30.289 0.0879999 30.289 0.16ZM31.4035 2.476C31.4035 2.5 31.4035 2.572 31.4155 2.632C31.4635 2.872 31.6075 3.004 31.8475 3.016C32.0755 3.028 32.2675 2.956 32.4715 2.872C32.8915 2.668 33.2635 2.392 33.6355 2.104C33.9475 1.84 34.2715 1.588 34.5475 1.276C34.5595 1.264 34.5835 1.252 34.5955 1.24C34.6075 1.228 34.6315 1.228 34.6555 1.228C34.6795 1.252 34.6795 1.276 34.6675 1.3C34.6315 1.372 34.5835 1.444 34.5235 1.492C34.3675 1.636 34.2235 1.78 34.0675 1.924C33.6715 2.26 33.2755 2.596 32.8315 2.884C32.5675 3.052 32.2915 3.196 31.9675 3.244C31.5955 3.304 31.3195 3.172 31.1035 2.884C30.8395 2.512 30.8275 2.104 30.9595 1.684C31.1515 1.144 31.4995 0.724 32.0035 0.436C32.1715 0.34 32.3515 0.292 32.5435 0.268C32.9635 0.22 33.2755 0.592 33.1435 0.988C33.1435 1.024 33.1315 1.06 33.1075 1.084C33.0835 1.132 33.0355 1.144 32.9875 1.132C32.9395 1.108 32.9035 1.072 32.9155 1.012C32.9275 0.94 32.9635 0.856 32.9755 0.784C32.9875 0.604 32.8915 0.52 32.7115 0.52C32.6275 0.532 32.5435 0.568 32.4715 0.616C32.3395 0.688 32.2195 0.796 32.1115 0.916C31.7995 1.252 31.5835 1.636 31.4515 2.08C31.4155 2.188 31.4035 2.308 31.4035 2.476ZM34.3602 2.392C34.5162 2.332 34.6482 2.236 34.7802 2.152C35.2842 1.804 35.7642 1.432 36.2922 1.12C36.3162 1.108 36.3522 1.084 36.3762 1.072C36.4722 1.024 36.5682 1 36.6642 1.072C36.7482 1.144 36.7602 1.24 36.7482 1.348C36.7242 1.468 36.6642 1.564 36.6162 1.672C36.5322 1.828 36.4482 1.984 36.3762 2.14C36.3522 2.2 36.3162 2.284 36.3762 2.344C36.4362 2.416 36.5202 2.404 36.6042 2.392C36.7362 2.356 36.8562 2.308 36.9762 2.248C37.4322 2.032 37.8282 1.732 38.2122 1.408C38.3082 1.324 38.4042 1.228 38.5002 1.144C38.5362 1.12 38.5722 1.084 38.6202 1.084C38.6442 1.072 38.6802 1.084 38.6922 1.108C38.7162 1.132 38.7162 1.156 38.6922 1.18C38.6802 1.204 38.6562 1.228 38.6322 1.252C38.1642 1.636 37.6962 2.032 37.1682 2.344C37.0002 2.44 36.8202 2.524 36.6282 2.56C36.2322 2.656 35.9802 2.44 36.0282 2.032C36.0402 1.864 36.1002 1.708 36.1722 1.552C36.1962 1.504 36.2442 1.468 36.2322 1.396C36.1722 1.384 36.1242 1.432 36.0762 1.456C35.7642 1.636 35.4882 1.84 35.2122 2.056C34.9962 2.224 34.7802 2.38 34.5642 2.536C34.4802 2.608 34.3842 2.656 34.2762 2.692C34.0602 2.764 33.8802 2.656 33.8562 2.428C33.8322 2.284 33.8442 2.14 33.9042 2.02C34.1682 1.42 34.6122 1.012 35.2602 0.844C35.4642 0.796 35.6682 0.832 35.8482 0.94C35.9322 1 36.0162 1.072 36.0042 1.204C35.9682 1.204 35.9442 1.204 35.9322 1.192C35.7762 1.048 35.6202 1.096 35.4762 1.204C35.3082 1.3 35.1642 1.432 35.0322 1.552C34.8162 1.768 34.6122 2.008 34.4202 2.248C34.3842 2.284 34.3362 2.32 34.3602 2.392ZM38.2123 2.152C38.2363 1.744 38.3803 1.384 38.5963 1.048C38.6563 0.952 38.7403 0.904 38.8483 0.904C38.9563 0.904 39.0403 0.94 39.0883 1.036C39.1363 1.12 39.1123 1.204 39.0643 1.276C38.9203 1.48 38.7763 1.672 38.6563 1.888C38.5843 2.008 38.5363 2.14 38.4883 2.272C38.4763 2.332 38.4643 2.392 38.4763 2.452C38.5003 2.56 38.5603 2.62 38.6803 2.62C38.8003 2.608 38.8963 2.56 38.9923 2.5C39.3523 2.272 39.6883 1.996 39.9883 1.708C40.1443 1.564 40.2883 1.408 40.4323 1.264C40.4683 1.228 40.5163 1.192 40.5523 1.156C40.5883 1.132 40.6243 1.108 40.6603 1.144C40.6963 1.18 40.6603 1.216 40.6363 1.24C40.1563 1.78 39.6403 2.272 39.0163 2.644C38.9323 2.692 38.8363 2.74 38.7283 2.764C38.5243 2.8 38.3923 2.74 38.2963 2.56C38.2243 2.44 38.2003 2.296 38.2123 2.152ZM39.6523 0.16C39.6523 0.208 39.6283 0.244 39.5803 0.256C39.4603 0.292 39.3883 0.388 39.3043 0.472C39.2683 0.508 39.2443 0.532 39.2083 0.556C39.1483 0.604 39.0883 0.616 39.0283 0.568C38.9563 0.52 38.9323 0.448 38.9443 0.376C38.9563 0.352 38.9563 0.328 38.9683 0.316C39.1003 0.148 39.2563 0.0519997 39.4603 0.0279996C39.5563 0.00399995 39.6523 0.0879999 39.6523 0.16Z"
  />
</svg>