<svg width="51" height="6" viewBox="0 0 51 6" fill="none" xmlns="http://www.w3.org/2000/svg">
  <path
    d="M3.10791 1.63203C1.94124 2.96536 0.00790632 5.53203 1.60791 5.13203C3.60791 4.63203 8.10791 1.63203 8.60791 1.63203C9.10791 1.63203 10.6079 5.13203 12.6079 5.13203C14.6079 5.13203 21.6079 1.13203 21.1079 1.63203C20.6079 2.13203 18.1079 5.63223 19.6079 5.13223C21.1079 4.63223 26.1079 1.63203 26.6079 1.63203C27.1079 1.63203 28.1079 5.13223 31.6079 5.13223C35.1079 5.13223 40.6079 0.132231 39.6079 1.13223C38.6079 2.13223 36.1079 5.13223 41.1079 5.13223C45.1079 5.13223 48.7746 2.79896 50.1079 1.63232"
    stroke="currentColor" stroke-linecap="round" />
</svg>